<svg id="svg" version="1.1" xmlns="http://www.w3.org/2000/svg" xmlns:xlink="http://www.w3.org/1999/xlink" width="400" height="243.07178631051755" viewBox="0, 0, 400,243.07178631051755"><g id="svgg"><path id="path0" d="M85.025 94.265 C 84.722 94.568,84.841 101.279,85.155 101.593 C 85.348 101.786,86.398 101.884,88.267 101.884 C 90.137 101.884,91.187 101.983,91.380 102.176 C 91.689 102.486,91.831 158.573,91.524 159.372 C 91.402 159.690,90.920 159.757,88.744 159.757 C 87.296 159.757,85.830 159.864,85.487 159.994 L 84.863 160.231 84.863 163.859 C 84.863 166.942,84.921 167.508,85.248 167.634 C 86.266 168.024,105.976 167.788,106.384 167.381 C 106.724 167.040,106.772 166.492,106.705 163.713 C 106.608 159.695,106.659 159.757,103.427 159.757 C 101.447 159.757,101.141 159.700,100.920 159.287 C 100.446 158.401,100.587 138.000,101.070 137.598 C 101.579 137.176,113.065 136.968,114.103 137.363 C 114.637 137.566,117.690 143.060,117.690 143.818 C 117.690 143.861,118.249 145.085,118.933 146.538 C 124.274 157.884,124.787 159.045,124.635 159.440 C 124.561 159.633,124.103 159.757,123.466 159.757 C 121.472 159.757,121.337 160.019,121.337 163.896 C 121.337 168.186,120.366 167.781,130.666 167.781 C 140.771 167.781,139.818 168.183,139.818 163.920 C 139.818 159.896,139.839 159.927,136.862 159.761 L 134.590 159.635 134.162 158.784 C 133.594 157.653,130.821 151.694,130.821 151.604 C 130.821 151.564,129.442 148.596,127.756 145.007 C 123.710 136.391,123.649 137.769,128.299 132.841 C 130.421 130.592,132.623 128.235,133.191 127.603 L 134.225 126.455 134.225 115.600 L 134.225 104.745 133.462 103.862 C 133.042 103.376,130.789 100.982,128.455 98.541 L 124.211 94.103 104.699 94.103 C 93.968 94.103,85.114 94.176,85.025 94.265 M153.728 94.394 C 153.321 94.801,153.320 101.186,153.726 101.593 C 153.920 101.786,154.969 101.884,156.839 101.884 C 158.709 101.884,159.758 101.983,159.951 102.176 C 160.386 102.611,160.374 159.103,159.939 159.462 C 159.772 159.600,158.345 159.750,156.769 159.796 C 154.551 159.860,153.850 159.961,153.672 160.243 C 153.323 160.797,153.370 167.133,153.726 167.489 C 154.036 167.799,198.940 167.939,199.737 167.634 C 200.078 167.503,200.122 166.438,200.122 158.144 L 200.122 148.803 199.498 148.565 C 199.155 148.435,197.685 148.328,196.231 148.328 C 194.777 148.328,193.307 148.435,192.964 148.565 L 192.340 148.803 192.340 153.895 C 192.340 156.696,192.274 159.161,192.193 159.372 C 191.999 159.877,170.034 159.967,169.532 159.465 C 169.017 158.950,169.122 135.598,169.642 135.167 C 169.967 134.897,172.147 134.820,181.000 134.765 C 189.294 134.713,192.002 134.625,192.144 134.400 C 192.464 133.897,192.379 127.553,192.049 127.222 C 191.830 127.004,188.987 126.930,180.750 126.930 C 170.117 126.930,169.735 126.914,169.492 126.460 C 169.328 126.154,169.240 121.926,169.240 114.407 C 169.240 106.888,169.328 102.660,169.492 102.355 C 169.803 101.774,191.475 101.603,192.049 102.176 C 192.257 102.385,192.340 103.945,192.340 107.655 C 192.340 112.366,192.379 112.858,192.766 113.017 C 193.321 113.245,199.143 113.244,199.699 113.016 C 200.099 112.851,200.123 112.226,200.064 103.532 L 200.000 94.225 177.010 94.163 C 159.331 94.115,153.953 94.169,153.728 94.394 M225.056 95.137 C 224.476 95.705,222.184 98.113,219.964 100.488 L 215.927 104.807 215.927 114.427 L 215.927 124.048 217.921 126.158 C 219.017 127.318,221.256 129.658,222.897 131.358 L 225.880 134.448 236.096 134.519 L 246.312 134.590 248.410 136.657 C 251.289 139.493,251.185 139.125,251.185 146.559 C 251.185 154.284,251.282 153.936,248.334 156.894 L 245.967 159.271 237.592 159.271 L 229.217 159.271 226.159 156.239 L 223.100 153.207 223.018 149.126 C 222.917 144.091,223.201 144.438,219.164 144.438 C 214.542 144.438,214.954 143.805,214.954 150.897 L 214.954 156.853 217.362 159.460 C 218.687 160.894,221.012 163.355,222.529 164.929 L 225.289 167.791 237.366 167.786 C 244.009 167.783,249.603 167.720,249.798 167.645 C 250.232 167.479,259.457 157.724,259.870 156.995 C 260.279 156.274,260.310 137.354,259.904 136.580 C 259.750 136.288,258.136 134.479,256.317 132.561 C 254.498 130.642,252.403 128.426,251.663 127.636 L 250.317 126.201 240.143 126.201 L 229.968 126.201 227.789 124.073 C 224.740 121.096,224.924 121.736,224.924 114.138 L 224.924 107.643 227.469 105.068 L 230.013 102.492 237.575 102.492 L 245.137 102.492 248.040 105.448 L 250.942 108.403 250.942 112.421 C 250.942 117.530,250.661 117.204,255.076 117.204 C 257.815 117.204,258.517 117.132,258.828 116.822 C 259.275 116.374,259.402 106.068,258.974 104.943 C 258.773 104.414,250.381 95.292,249.282 94.407 C 248.992 94.174,246.261 94.103,237.508 94.103 L 226.112 94.103 225.056 95.137 M269.188 94.574 C 268.765 95.365,268.851 112.131,269.282 112.719 C 269.745 113.353,275.845 113.447,276.236 112.827 C 276.363 112.626,276.468 110.213,276.470 107.465 C 276.473 103.907,276.558 102.384,276.766 102.176 C 277.182 101.760,290.356 101.760,290.772 102.176 C 291.104 102.508,291.204 158.917,290.873 159.437 C 290.746 159.637,289.335 159.748,286.268 159.802 C 283.050 159.858,281.761 159.964,281.531 160.195 C 281.042 160.685,281.086 167.230,281.581 167.543 C 281.799 167.681,287.399 167.774,295.562 167.774 C 303.726 167.774,309.325 167.681,309.544 167.543 C 310.039 167.230,310.083 160.685,309.593 160.195 C 309.365 159.965,308.096 159.857,304.979 159.801 C 302.437 159.756,300.553 159.619,300.370 159.468 C 299.931 159.103,299.913 102.616,300.353 102.176 C 300.844 101.685,313.770 101.769,314.268 102.267 C 314.591 102.590,314.650 103.436,314.650 107.745 C 314.650 112.371,314.690 112.858,315.076 113.017 C 315.886 113.349,321.351 113.220,321.787 112.858 C 322.269 112.457,322.409 95.455,321.937 94.574 C 321.541 93.834,269.583 93.834,269.188 94.574 M123.054 105.227 C 126.225 108.514,126.005 107.660,125.910 116.300 L 125.836 123.056 122.898 125.966 L 119.961 128.875 110.740 128.872 C 105.355 128.869,101.368 128.772,101.155 128.637 C 100.604 128.289,100.604 102.960,101.155 102.604 C 101.378 102.460,105.184 102.393,110.968 102.431 L 120.417 102.492 123.054 105.227 " stroke="none" fill="#019fc7" fill-rule="evenodd"></path><path id="path1" d="M85.025 94.265 C 84.722 94.568,84.841 101.279,85.155 101.593 C 85.348 101.786,86.398 101.884,88.267 101.884 C 90.137 101.884,91.187 101.983,91.380 102.176 C 91.689 102.486,91.831 158.573,91.524 159.372 C 91.402 159.690,90.920 159.757,88.744 159.757 C 87.296 159.757,85.830 159.864,85.487 159.994 L 84.863 160.231 84.863 163.859 C 84.863 166.942,84.921 167.508,85.248 167.634 C 86.266 168.024,105.976 167.788,106.384 167.381 C 106.724 167.040,106.772 166.492,106.705 163.713 C 106.608 159.695,106.659 159.757,103.427 159.757 C 101.447 159.757,101.141 159.700,100.920 159.287 C 100.446 158.401,100.587 138.000,101.070 137.598 C 101.579 137.176,113.065 136.968,114.103 137.363 C 114.637 137.566,117.690 143.060,117.690 143.818 C 117.690 143.861,118.249 145.085,118.933 146.538 C 124.274 157.884,124.787 159.045,124.635 159.440 C 124.561 159.633,124.103 159.757,123.466 159.757 C 121.472 159.757,121.337 160.019,121.337 163.896 C 121.337 168.186,120.366 167.781,130.666 167.781 C 140.771 167.781,139.818 168.183,139.818 163.920 C 139.818 159.896,139.839 159.927,136.862 159.761 L 134.590 159.635 134.162 158.784 C 133.594 157.653,130.821 151.694,130.821 151.604 C 130.821 151.564,129.442 148.596,127.756 145.007 C 123.710 136.391,123.649 137.769,128.299 132.841 C 130.421 130.592,132.623 128.235,133.191 127.603 L 134.225 126.455 134.225 115.600 L 134.225 104.745 133.462 103.862 C 133.042 103.376,130.789 100.982,128.455 98.541 L 124.211 94.103 104.699 94.103 C 93.968 94.103,85.114 94.176,85.025 94.265 M153.728 94.394 C 153.321 94.801,153.320 101.186,153.726 101.593 C 153.920 101.786,154.969 101.884,156.839 101.884 C 158.709 101.884,159.758 101.983,159.951 102.176 C 160.386 102.611,160.374 159.103,159.939 159.462 C 159.772 159.600,158.345 159.750,156.769 159.796 C 154.551 159.860,153.850 159.961,153.672 160.243 C 153.323 160.797,153.370 167.133,153.726 167.489 C 154.036 167.799,198.940 167.939,199.737 167.634 C 200.078 167.503,200.122 166.438,200.122 158.144 L 200.122 148.803 199.498 148.565 C 199.155 148.435,197.685 148.328,196.231 148.328 C 194.777 148.328,193.307 148.435,192.964 148.565 L 192.340 148.803 192.340 153.895 C 192.340 156.696,192.274 159.161,192.193 159.372 C 191.999 159.877,170.034 159.967,169.532 159.465 C 169.017 158.950,169.122 135.598,169.642 135.167 C 169.967 134.897,172.147 134.820,181.000 134.765 C 189.294 134.713,192.002 134.625,192.144 134.400 C 192.464 133.897,192.379 127.553,192.049 127.222 C 191.830 127.004,188.987 126.930,180.750 126.930 C 170.117 126.930,169.735 126.914,169.492 126.460 C 169.328 126.154,169.240 121.926,169.240 114.407 C 169.240 106.888,169.328 102.660,169.492 102.355 C 169.803 101.774,191.475 101.603,192.049 102.176 C 192.257 102.385,192.340 103.945,192.340 107.655 C 192.340 112.366,192.379 112.858,192.766 113.017 C 193.321 113.245,199.143 113.244,199.699 113.016 C 200.099 112.851,200.123 112.226,200.064 103.532 L 200.000 94.225 177.010 94.163 C 159.331 94.115,153.953 94.169,153.728 94.394 M225.056 95.137 C 224.476 95.705,222.184 98.113,219.964 100.488 L 215.927 104.807 215.927 114.427 L 215.927 124.048 217.921 126.158 C 219.017 127.318,221.256 129.658,222.897 131.358 L 225.880 134.448 236.096 134.519 L 246.312 134.590 248.410 136.657 C 251.289 139.493,251.185 139.125,251.185 146.559 C 251.185 154.284,251.282 153.936,248.334 156.894 L 245.967 159.271 237.592 159.271 L 229.217 159.271 226.159 156.239 L 223.100 153.207 223.018 149.126 C 222.917 144.091,223.201 144.438,219.164 144.438 C 214.542 144.438,214.954 143.805,214.954 150.897 L 214.954 156.853 217.362 159.460 C 218.687 160.894,221.012 163.355,222.529 164.929 L 225.289 167.791 237.366 167.786 C 244.009 167.783,249.603 167.720,249.798 167.645 C 250.232 167.479,259.457 157.724,259.870 156.995 C 260.279 156.274,260.310 137.354,259.904 136.580 C 259.750 136.288,258.136 134.479,256.317 132.561 C 254.498 130.642,252.403 128.426,251.663 127.636 L 250.317 126.201 240.143 126.201 L 229.968 126.201 227.789 124.073 C 224.740 121.096,224.924 121.736,224.924 114.138 L 224.924 107.643 227.469 105.068 L 230.013 102.492 237.575 102.492 L 245.137 102.492 248.040 105.448 L 250.942 108.403 250.942 112.421 C 250.942 117.530,250.661 117.204,255.076 117.204 C 257.815 117.204,258.517 117.132,258.828 116.822 C 259.275 116.374,259.402 106.068,258.974 104.943 C 258.773 104.414,250.381 95.292,249.282 94.407 C 248.992 94.174,246.261 94.103,237.508 94.103 L 226.112 94.103 225.056 95.137 M269.188 94.574 C 268.765 95.365,268.851 112.131,269.282 112.719 C 269.745 113.353,275.845 113.447,276.236 112.827 C 276.363 112.626,276.468 110.213,276.470 107.465 C 276.473 103.907,276.558 102.384,276.766 102.176 C 277.182 101.760,290.356 101.760,290.772 102.176 C 291.104 102.508,291.204 158.917,290.873 159.437 C 290.746 159.637,289.335 159.748,286.268 159.802 C 283.050 159.858,281.761 159.964,281.531 160.195 C 281.042 160.685,281.086 167.230,281.581 167.543 C 281.799 167.681,287.399 167.774,295.562 167.774 C 303.726 167.774,309.325 167.681,309.544 167.543 C 310.039 167.230,310.083 160.685,309.593 160.195 C 309.365 159.965,308.096 159.857,304.979 159.801 C 302.437 159.756,300.553 159.619,300.370 159.468 C 299.931 159.103,299.913 102.616,300.353 102.176 C 300.844 101.685,313.770 101.769,314.268 102.267 C 314.591 102.590,314.650 103.436,314.650 107.745 C 314.650 112.371,314.690 112.858,315.076 113.017 C 315.886 113.349,321.351 113.220,321.787 112.858 C 322.269 112.457,322.409 95.455,321.937 94.574 C 321.541 93.834,269.583 93.834,269.188 94.574 M123.054 105.227 C 126.225 108.514,126.005 107.660,125.910 116.300 L 125.836 123.056 122.898 125.966 L 119.961 128.875 110.740 128.872 C 105.355 128.869,101.368 128.772,101.155 128.637 C 100.604 128.289,100.604 102.960,101.155 102.604 C 101.378 102.460,105.184 102.393,110.968 102.431 L 120.417 102.492 123.054 105.227 " stroke="none" fill="#019fc7" fill-rule="evenodd"></path><path id="path2" d="M37.678 89.301 C 34.982 92.143,32.691 94.687,32.588 94.954 C 32.401 95.439,32.980 104.595,33.665 111.976 C 34.111 116.791,34.417 121.300,34.341 121.945 C 34.283 122.437,33.694 123.036,30.317 126.034 L 28.450 127.691 28.450 130.823 C 28.450 134.462,28.200 134.002,31.819 137.041 C 34.828 139.566,34.644 138.346,33.682 149.422 C 33.484 151.696,33.207 155.198,33.065 157.204 C 32.924 159.210,32.711 162.042,32.593 163.498 C 32.464 165.081,32.467 166.380,32.600 166.730 C 32.789 167.227,40.219 175.323,41.989 176.960 C 42.562 177.491,42.733 177.508,47.559 177.508 C 53.462 177.508,52.888 177.975,52.888 173.172 C 52.888 168.824,53.043 168.997,49.133 168.997 L 46.322 168.997 44.219 166.838 C 41.061 163.595,41.249 164.129,41.681 159.599 C 42.800 147.850,43.504 138.115,43.277 137.508 C 43.177 137.240,41.797 135.837,40.210 134.390 C 35.916 130.474,35.917 131.243,40.204 127.305 C 43.706 124.088,43.532 124.549,43.145 119.514 C 42.578 112.149,42.038 105.731,41.684 102.157 C 41.493 100.234,41.337 98.494,41.337 98.291 C 41.337 98.088,42.507 96.734,43.937 95.283 L 46.537 92.644 49.240 92.644 C 53.027 92.644,52.888 92.804,52.888 88.469 C 52.888 83.666,53.462 84.134,47.559 84.134 L 42.580 84.134 37.678 89.301 M359.939 84.295 C 359.714 84.386,359.635 85.417,359.635 88.279 C 359.635 92.899,359.427 92.644,363.193 92.644 L 365.810 92.644 368.316 95.150 C 371.280 98.114,371.074 96.989,370.332 106.140 C 370.061 109.483,369.672 114.298,369.468 116.839 C 369.264 119.380,369.034 122.063,368.957 122.802 L 368.818 124.145 372.251 127.389 C 374.139 129.173,375.684 130.735,375.684 130.859 C 375.684 130.984,374.781 131.927,373.678 132.956 C 372.574 133.984,371.027 135.455,370.239 136.223 L 368.806 137.620 368.956 139.023 C 369.039 139.794,369.275 142.559,369.483 145.167 C 369.690 147.775,370.020 151.824,370.217 154.164 C 370.414 156.505,370.644 159.678,370.729 161.216 L 370.882 164.012 368.453 166.505 L 366.025 168.997 363.241 168.997 C 359.403 168.997,359.607 168.738,359.690 173.497 L 359.757 177.386 364.776 177.452 L 369.795 177.517 374.051 173.075 C 380.289 166.562,380.118 166.796,379.959 165.005 C 379.887 164.191,379.712 162.158,379.570 160.486 C 379.429 158.815,379.209 156.298,379.083 154.894 C 378.957 153.489,378.738 150.699,378.598 148.693 C 378.458 146.687,378.251 143.897,378.139 142.492 C 377.882 139.266,377.840 139.358,380.701 136.920 C 384.219 133.923,383.951 134.425,383.951 130.809 L 383.951 127.691 382.075 126.034 C 377.976 122.415,377.822 122.228,377.967 121.051 C 378.039 120.473,378.213 118.413,378.354 116.474 C 378.496 114.535,378.828 110.322,379.092 107.112 C 379.356 103.903,379.677 99.986,379.805 98.409 C 379.933 96.831,379.959 95.331,379.864 95.074 C 379.686 94.592,372.140 86.428,370.516 84.959 L 369.603 84.134 364.923 84.153 C 362.349 84.163,360.106 84.227,359.939 84.295 " stroke="none" fill="#1ab88a" fill-rule="evenodd"></path></g></svg>