<?xml version="1.0" encoding="UTF-8"?>
<!DOCTYPE svg PUBLIC "-//W3C//DTD SVG 1.1//EN" "http://www.w3.org/Graphics/SVG/1.1/DTD/svg11.dtd">
<svg xmlns="http://www.w3.org/2000/svg" version="1.1" width="512px" height="512px" style="shape-rendering:geometricPrecision; text-rendering:geometricPrecision; image-rendering:optimizeQuality; fill-rule:evenodd; clip-rule:evenodd" xmlns:xlink="http://www.w3.org/1999/xlink">
<g><path style="opacity:0.999" fill="#7f7f7f" d="M 235.5,-0.5 C 236.167,-0.5 236.833,-0.5 237.5,-0.5C 237.667,30.1685 237.5,60.8351 237,91.5C 210.079,107.712 182.913,123.545 155.5,139C 154.167,141 154.167,143 155.5,145C 185.5,162.333 215.5,179.667 245.5,197C 249.084,199.211 252.917,200.711 257,201.5C 258.967,201.458 260.801,200.958 262.5,200C 294.003,181.414 325.67,163.081 357.5,145C 359.354,141.274 358.354,138.608 354.5,137C 328.252,121.96 302.085,106.793 276,91.5C 275.5,60.8351 275.333,30.1685 275.5,-0.5C 276.167,-0.5 276.833,-0.5 277.5,-0.5C 345.5,39.5 413.5,79.5 481.5,119.5C 406.364,162.569 331.364,205.902 256.5,249.5C 249.952,246.893 243.619,243.726 237.5,240C 168.275,199.557 98.942,159.391 29.5,119.5C 34.5971,115.775 39.9304,112.275 45.5,109C 109.26,73.036 172.593,36.536 235.5,-0.5 Z"/></g>
<g><path style="opacity:0.999" fill="#000000" d="M 481.5,119.5 C 481.168,199.071 481.502,278.571 482.5,358C 482,358.5 481.5,359 481,359.5C 455.165,343.915 429.165,328.581 403,313.5C 402.667,281.5 402.333,249.5 402,217.5C 401.626,216.584 401.126,215.75 400.5,215C 397.298,215.086 394.298,216.086 391.5,218C 361.5,235.333 331.5,252.667 301.5,270C 299.274,271.227 297.774,273.061 297,275.5C 296.333,314.167 296.333,352.833 297,391.5C 297.5,392 298,392.5 298.5,393C 301.702,392.914 304.702,391.914 307.5,390C 332.963,375.366 358.297,360.533 383.5,345.5C 409.833,361 436.167,376.5 462.5,392C 394.104,431.86 325.77,471.693 257.5,511.5C 256.833,511.5 256.167,511.5 255.5,511.5C 255.169,424.096 255.503,336.763 256.5,249.5C 331.364,205.902 406.364,162.569 481.5,119.5 Z"/></g>
<g><path style="opacity:0.998" fill="#4c4c4c" d="M 29.5,119.5 C 98.942,159.391 168.275,199.557 237.5,240C 243.619,243.726 249.952,246.893 256.5,249.5C 255.503,336.763 255.169,424.096 255.5,511.5C 255.167,511.5 254.833,511.5 254.5,511.5C 186.003,471.197 117.336,431.03 48.5,391C 74.5442,375.312 100.878,360.145 127.5,345.5C 154.292,360.397 180.959,375.564 207.5,391C 210.025,391.896 212.192,391.396 214,389.5C 214.667,350.833 214.667,312.167 214,273.5C 213.535,272.069 212.701,270.903 211.5,270C 178.647,251.134 145.813,232.301 113,213.5C 111.488,214.257 110.154,215.257 109,216.5C 108.667,248.5 108.333,280.5 108,312.5C 83.2487,327.126 58.4154,341.626 33.5,356C 31.9556,357.187 30.2889,357.52 28.5,357C 29.4983,277.904 29.8316,198.737 29.5,119.5 Z"/></g>
</svg>
